<svg xmlns="http://www.w3.org/2000/svg" xmlns:xlink="http://www.w3.org/1999/xlink" width="100" zoomAndPan="magnify" viewBox="0 0 375 374.999991" height="100" preserveAspectRatio="xMidYMid meet" version="1.0"><defs><g/><clipPath id="id1"><path d="M 126.683594 86.160156 L 248.183594 86.160156 L 248.183594 216.660156 L 126.683594 216.660156 Z M 126.683594 86.160156 " clip-rule="nonzero"/></clipPath></defs><g clip-path="url(#id1)"><path fill="#5271ff" d="M 175.945312 148.8125 L 248.183594 148.8125 L 248.183594 159.558594 C 248.183594 160.960938 248.132812 162.359375 248.03125 163.757812 C 247.929688 165.15625 247.773438 166.546875 247.570312 167.933594 C 247.363281 169.320312 247.109375 170.699219 246.800781 172.066406 C 246.496094 173.433594 246.140625 174.789062 245.734375 176.132812 C 245.328125 177.472656 244.875 178.796875 244.371094 180.105469 C 243.867188 181.414062 243.316406 182.699219 242.71875 183.96875 C 242.121094 185.234375 241.476562 186.480469 240.789062 187.699219 C 240.097656 188.917969 239.367188 190.113281 238.589844 191.277344 C 237.8125 192.441406 236.992188 193.578125 236.132812 194.683594 C 235.273438 195.789062 234.371094 196.859375 233.433594 197.898438 C 232.492188 198.9375 231.519531 199.941406 230.503906 200.90625 C 229.492188 201.875 228.445312 202.800781 227.363281 203.691406 C 226.28125 204.582031 225.171875 205.429688 224.027344 206.238281 C 222.882812 207.042969 221.710938 207.808594 220.511719 208.527344 C 219.3125 209.25 218.089844 209.925781 216.839844 210.554688 C 215.589844 211.1875 214.320312 211.769531 213.027344 212.304688 C 211.734375 212.84375 210.425781 213.332031 209.097656 213.769531 C 207.769531 214.210938 206.429688 214.601562 205.070312 214.941406 C 203.714844 215.28125 202.347656 215.570312 200.96875 215.8125 C 199.589844 216.050781 198.207031 216.238281 196.816406 216.378906 C 195.421875 216.515625 194.027344 216.601562 192.628906 216.632812 C 191.230469 216.667969 189.835938 216.652344 188.4375 216.582031 C 187.039062 216.515625 185.648438 216.394531 184.261719 216.222656 C 182.871094 216.050781 181.492188 215.828125 180.121094 215.554688 C 178.75 215.28125 177.390625 214.957031 176.042969 214.582031 C 174.695312 214.210938 173.359375 213.785156 172.042969 213.3125 C 170.726562 212.839844 169.429688 212.320312 168.152344 211.753906 C 166.871094 211.183594 165.617188 210.570312 164.382812 209.910156 C 163.148438 209.25 161.941406 208.542969 160.761719 207.792969 C 159.578125 207.042969 158.425781 206.25 157.304688 205.414062 C 156.179688 204.582031 155.089844 203.703125 154.03125 202.789062 C 152.972656 201.875 151.949219 200.917969 150.957031 199.929688 C 148.308594 197.285156 145.9375 194.402344 143.855469 191.289062 C 141.773438 188.171875 140.019531 184.882812 138.585938 181.417969 C 137.15625 177.953125 136.078125 174.378906 135.355469 170.703125 C 134.628906 167.023438 134.273438 163.308594 134.285156 159.558594 C 134.285156 155.945312 134.617188 152.363281 135.289062 148.8125 L 157.378906 148.8125 C 156.277344 152.308594 155.726562 155.890625 155.734375 159.558594 C 155.734375 179.191406 171.664062 195.160156 191.246094 195.160156 C 207.082031 195.164062 220.535156 184.699219 225.085938 170.304688 L 191.230469 170.304688 Z M 176.359375 123.957031 L 230.074219 123.957031 L 248.183594 102.46875 L 176.359375 102.46875 C 174.785156 102.464844 173.21875 102.371094 171.65625 102.183594 C 170.097656 102 168.550781 101.726562 167.019531 101.363281 C 165.492188 101 163.988281 100.546875 162.511719 100.011719 C 161.03125 99.472656 159.589844 98.851562 158.183594 98.148438 C 156.777344 97.441406 155.417969 96.660156 154.101562 95.796875 C 152.785156 94.933594 151.523438 94 150.3125 92.992188 C 149.105469 91.980469 147.960938 90.90625 146.875 89.765625 C 145.789062 88.625 144.773438 87.425781 143.828125 86.167969 L 126.683594 99.0625 C 129.582031 102.925781 132.878906 106.402344 136.578125 109.496094 C 140.277344 112.59375 144.28125 115.222656 148.589844 117.386719 C 152.902344 119.542969 157.402344 121.175781 162.09375 122.285156 C 166.785156 123.394531 171.539062 123.953125 176.359375 123.957031 Z M 176.359375 123.957031 " fill-opacity="1" fill-rule="nonzero"/></g><g fill="#5271ff" fill-opacity="1"><g transform="translate(97.601995, 285.640059)"><g><path d="M 7.65625 -2.265625 C 7.769531 -1.191406 7.988281 -0.4375 8.3125 0 L 6.34375 0 C 6.125 -0.59375 5.976562 -1.257812 5.90625 -2 C 5.78125 -3.007812 5.375 -3.539062 4.6875 -3.59375 C 4.53125 -3.601562 4.296875 -3.609375 3.984375 -3.609375 L 2.953125 -3.609375 L 2.953125 0 L 1.15625 0 L 1.15625 -8.96875 L 4.4375 -8.96875 C 4.925781 -8.96875 5.359375 -8.945312 5.734375 -8.90625 C 6.441406 -8.820312 7.007812 -8.585938 7.4375 -8.203125 C 7.875 -7.816406 8.09375 -7.257812 8.09375 -6.53125 C 8.09375 -5.96875 7.9375 -5.5 7.625 -5.125 C 7.3125 -4.757812 6.878906 -4.5 6.328125 -4.34375 C 7.097656 -4.050781 7.539062 -3.359375 7.65625 -2.265625 Z M 2.953125 -4.953125 L 4.1875 -4.953125 C 4.539062 -4.953125 4.78125 -4.957031 4.90625 -4.96875 C 5.769531 -5.039062 6.203125 -5.46875 6.203125 -6.25 C 6.203125 -6.65625 6.097656 -6.957031 5.890625 -7.15625 C 5.691406 -7.351562 5.398438 -7.476562 5.015625 -7.53125 C 4.804688 -7.550781 4.554688 -7.5625 4.265625 -7.5625 L 2.953125 -7.5625 Z M 2.953125 -4.953125 "/></g></g></g><g fill="#5271ff" fill-opacity="1"><g transform="translate(110.430387, 285.640059)"><g><path d="M 7.09375 -3.59375 C 7.09375 -3.34375 7.085938 -3.140625 7.078125 -2.984375 L 2.15625 -2.984375 C 2.257812 -1.710938 2.789062 -1.078125 3.75 -1.078125 C 4.144531 -1.078125 4.46875 -1.179688 4.71875 -1.390625 C 4.976562 -1.597656 5.140625 -1.882812 5.203125 -2.25 L 7 -2.25 C 6.820312 -1.457031 6.441406 -0.851562 5.859375 -0.4375 C 5.273438 -0.0195312 4.5625 0.1875 3.71875 0.1875 C 2.71875 0.1875 1.90625 -0.117188 1.28125 -0.734375 C 0.65625 -1.359375 0.34375 -2.257812 0.34375 -3.4375 C 0.34375 -4.507812 0.664062 -5.382812 1.3125 -6.0625 C 1.957031 -6.75 2.804688 -7.09375 3.859375 -7.09375 C 4.867188 -7.09375 5.660156 -6.757812 6.234375 -6.09375 C 6.804688 -5.425781 7.09375 -4.59375 7.09375 -3.59375 Z M 3.78125 -5.84375 C 2.882812 -5.84375 2.359375 -5.28125 2.203125 -4.15625 L 5.25 -4.15625 C 5.125 -5.28125 4.632812 -5.84375 3.78125 -5.84375 Z M 3.78125 -5.84375 "/></g></g></g><g fill="#5271ff" fill-opacity="1"><g transform="translate(122.271073, 285.640059)"><g><path d="M 4.84375 0 L 4.703125 -1.015625 L 4.375 -0.265625 C 3.914062 0.0351562 3.34375 0.1875 2.65625 0.1875 C 2.019531 0.1875 1.488281 0.0078125 1.0625 -0.34375 C 0.632812 -0.707031 0.421875 -1.203125 0.421875 -1.828125 C 0.421875 -2.597656 0.742188 -3.1875 1.390625 -3.59375 C 2.035156 -4.007812 2.984375 -4.21875 4.234375 -4.21875 L 4.6875 -4.21875 L 4.6875 -4.359375 C 4.6875 -4.628906 4.675781 -4.84375 4.65625 -5 C 4.59375 -5.5625 4.238281 -5.84375 3.59375 -5.84375 C 2.875 -5.84375 2.488281 -5.453125 2.4375 -4.671875 L 0.6875 -4.65625 C 0.71875 -5.414062 1.003906 -6.007812 1.546875 -6.4375 C 2.097656 -6.875 2.800781 -7.09375 3.65625 -7.09375 C 5.375 -7.09375 6.296875 -6.414062 6.421875 -5.0625 C 6.453125 -4.726562 6.46875 -4.367188 6.46875 -3.984375 L 6.46875 -1.75 C 6.46875 -1.226562 6.507812 -0.644531 6.59375 0 Z M 3.34375 -1.078125 C 3.71875 -1.078125 4.035156 -1.207031 4.296875 -1.46875 C 4.554688 -1.726562 4.6875 -2.085938 4.6875 -2.546875 L 4.6875 -3.109375 C 3.082031 -3.222656 2.28125 -2.84375 2.28125 -1.96875 C 2.28125 -1.375 2.632812 -1.078125 3.34375 -1.078125 Z M 3.34375 -1.078125 "/></g></g></g><g fill="#5271ff" fill-opacity="1"><g transform="translate(133.90382, 285.640059)"><g><path d="M 7.546875 -9.5625 L 7.546875 0 L 5.75 0 L 5.75 -1.0625 L 5.21875 -0.296875 C 4.8125 0.0234375 4.21875 0.1875 3.4375 0.1875 C 2.476562 0.1875 1.722656 -0.132812 1.171875 -0.78125 C 0.617188 -1.4375 0.34375 -2.285156 0.34375 -3.328125 C 0.34375 -4.523438 0.660156 -5.453125 1.296875 -6.109375 C 1.929688 -6.765625 2.722656 -7.09375 3.671875 -7.09375 C 4.378906 -7.09375 4.921875 -6.960938 5.296875 -6.703125 L 5.75 -6 L 5.75 -9.5625 Z M 3.953125 -1.078125 C 4.492188 -1.078125 4.925781 -1.257812 5.25 -1.625 C 5.582031 -2 5.75 -2.582031 5.75 -3.375 L 5.75 -3.71875 C 5.75 -4.4375 5.578125 -4.96875 5.234375 -5.3125 C 4.898438 -5.664062 4.492188 -5.84375 4.015625 -5.84375 C 3.484375 -5.84375 3.046875 -5.632812 2.703125 -5.21875 C 2.367188 -4.8125 2.203125 -4.21875 2.203125 -3.4375 C 2.203125 -2.726562 2.359375 -2.15625 2.671875 -1.71875 C 2.992188 -1.289062 3.421875 -1.078125 3.953125 -1.078125 Z M 3.953125 -1.078125 "/></g></g></g><g fill="#5271ff" fill-opacity="1"><g transform="translate(146.615241, 285.640059)"><g><path d="M 11.09375 -5.375 C 11.132812 -5.082031 11.15625 -4.664062 11.15625 -4.125 L 11.15625 0 L 9.359375 0 L 9.359375 -3.59375 C 9.359375 -4.039062 9.34375 -4.421875 9.3125 -4.734375 C 9.21875 -5.472656 8.828125 -5.84375 8.140625 -5.84375 C 7.296875 -5.84375 6.875 -5.078125 6.875 -3.546875 L 6.875 0 L 5.09375 0 L 5.09375 -3.59375 C 5.09375 -4.039062 5.078125 -4.421875 5.046875 -4.734375 C 4.953125 -5.472656 4.554688 -5.84375 3.859375 -5.84375 C 3.023438 -5.84375 2.609375 -5.078125 2.609375 -3.546875 L 2.609375 0 L 0.8125 0 L 0.8125 -6.921875 L 2.609375 -6.921875 L 2.609375 -5.859375 L 3.125 -6.6875 C 3.5 -6.957031 3.988281 -7.09375 4.59375 -7.09375 C 5.132812 -7.09375 5.582031 -6.972656 5.9375 -6.734375 C 6.300781 -6.503906 6.554688 -6.1875 6.703125 -5.78125 L 7.390625 -6.6875 C 7.765625 -6.957031 8.253906 -7.09375 8.859375 -7.09375 C 9.492188 -7.09375 10 -6.929688 10.375 -6.609375 C 10.757812 -6.296875 11 -5.882812 11.09375 -5.375 Z M 11.09375 -5.375 "/></g></g></g><g fill="#5271ff" fill-opacity="1"><g transform="translate(162.848581, 285.640059)"><g><path d="M 7.09375 -3.59375 C 7.09375 -3.34375 7.085938 -3.140625 7.078125 -2.984375 L 2.15625 -2.984375 C 2.257812 -1.710938 2.789062 -1.078125 3.75 -1.078125 C 4.144531 -1.078125 4.46875 -1.179688 4.71875 -1.390625 C 4.976562 -1.597656 5.140625 -1.882812 5.203125 -2.25 L 7 -2.25 C 6.820312 -1.457031 6.441406 -0.851562 5.859375 -0.4375 C 5.273438 -0.0195312 4.5625 0.1875 3.71875 0.1875 C 2.71875 0.1875 1.90625 -0.117188 1.28125 -0.734375 C 0.65625 -1.359375 0.34375 -2.257812 0.34375 -3.4375 C 0.34375 -4.507812 0.664062 -5.382812 1.3125 -6.0625 C 1.957031 -6.75 2.804688 -7.09375 3.859375 -7.09375 C 4.867188 -7.09375 5.660156 -6.757812 6.234375 -6.09375 C 6.804688 -5.425781 7.09375 -4.59375 7.09375 -3.59375 Z M 3.78125 -5.84375 C 2.882812 -5.84375 2.359375 -5.28125 2.203125 -4.15625 L 5.25 -4.15625 C 5.125 -5.28125 4.632812 -5.84375 3.78125 -5.84375 Z M 3.78125 -5.84375 "/></g></g></g><g fill="#5271ff" fill-opacity="1"><g transform="translate(174.689267, 285.640059)"><g/></g></g><g fill="#5271ff" fill-opacity="1"><g transform="translate(181.539483, 285.640059)"><g><path d="M 7.546875 -6.921875 L 7.546875 -1.734375 C 7.546875 -1.085938 7.539062 -0.640625 7.53125 -0.390625 C 7.488281 0.671875 7.144531 1.46875 6.5 2 C 5.851562 2.539062 4.972656 2.8125 3.859375 2.8125 C 2.859375 2.8125 2.070312 2.609375 1.5 2.203125 C 0.9375 1.796875 0.617188 1.207031 0.546875 0.4375 L 0.53125 0.3125 L 2.28125 0.3125 L 2.28125 0.421875 C 2.332031 0.742188 2.5 1 2.78125 1.1875 C 3.0625 1.375 3.429688 1.46875 3.890625 1.46875 C 4.453125 1.46875 4.890625 1.328125 5.203125 1.046875 C 5.523438 0.765625 5.703125 0.351562 5.734375 -0.1875 C 5.742188 -0.363281 5.75 -0.648438 5.75 -1.046875 L 5.75 -1.203125 L 5.21875 -0.4375 C 4.8125 -0.125 4.242188 0.03125 3.515625 0.03125 C 2.546875 0.03125 1.773438 -0.28125 1.203125 -0.90625 C 0.628906 -1.53125 0.34375 -2.351562 0.34375 -3.375 C 0.34375 -4.570312 0.660156 -5.488281 1.296875 -6.125 C 1.929688 -6.769531 2.722656 -7.09375 3.671875 -7.09375 C 4.378906 -7.09375 4.921875 -6.960938 5.296875 -6.703125 L 5.75 -6 L 5.75 -6.921875 Z M 2.671875 -1.84375 C 2.984375 -1.425781 3.410156 -1.21875 3.953125 -1.21875 C 4.492188 -1.21875 4.925781 -1.398438 5.25 -1.765625 C 5.582031 -2.140625 5.75 -2.722656 5.75 -3.515625 L 5.75 -3.71875 C 5.75 -4.4375 5.578125 -4.96875 5.234375 -5.3125 C 4.898438 -5.664062 4.492188 -5.84375 4.015625 -5.84375 C 3.472656 -5.84375 3.035156 -5.648438 2.703125 -5.265625 C 2.367188 -4.878906 2.203125 -4.300781 2.203125 -3.53125 C 2.203125 -2.820312 2.359375 -2.257812 2.671875 -1.84375 Z M 2.671875 -1.84375 "/></g></g></g><g fill="#5271ff" fill-opacity="1"><g transform="translate(194.250904, 285.640059)"><g><path d="M 7.09375 -3.59375 C 7.09375 -3.34375 7.085938 -3.140625 7.078125 -2.984375 L 2.15625 -2.984375 C 2.257812 -1.710938 2.789062 -1.078125 3.75 -1.078125 C 4.144531 -1.078125 4.46875 -1.179688 4.71875 -1.390625 C 4.976562 -1.597656 5.140625 -1.882812 5.203125 -2.25 L 7 -2.25 C 6.820312 -1.457031 6.441406 -0.851562 5.859375 -0.4375 C 5.273438 -0.0195312 4.5625 0.1875 3.71875 0.1875 C 2.71875 0.1875 1.90625 -0.117188 1.28125 -0.734375 C 0.65625 -1.359375 0.34375 -2.257812 0.34375 -3.4375 C 0.34375 -4.507812 0.664062 -5.382812 1.3125 -6.0625 C 1.957031 -6.75 2.804688 -7.09375 3.859375 -7.09375 C 4.867188 -7.09375 5.660156 -6.757812 6.234375 -6.09375 C 6.804688 -5.425781 7.09375 -4.59375 7.09375 -3.59375 Z M 3.78125 -5.84375 C 2.882812 -5.84375 2.359375 -5.28125 2.203125 -4.15625 L 5.25 -4.15625 C 5.125 -5.28125 4.632812 -5.84375 3.78125 -5.84375 Z M 3.78125 -5.84375 "/></g></g></g><g fill="#5271ff" fill-opacity="1"><g transform="translate(206.09159, 285.640059)"><g><path d="M 7.265625 -5.15625 C 7.296875 -4.84375 7.3125 -4.425781 7.3125 -3.90625 L 7.3125 0 L 5.53125 0 L 5.53125 -3.65625 C 5.53125 -4.0625 5.519531 -4.378906 5.5 -4.609375 C 5.4375 -5.429688 4.992188 -5.84375 4.171875 -5.84375 C 3.703125 -5.84375 3.320312 -5.625 3.03125 -5.1875 C 2.75 -4.75 2.609375 -4.070312 2.609375 -3.15625 L 2.609375 0 L 0.8125 0 L 0.8125 -6.921875 L 2.609375 -6.921875 L 2.609375 -5.796875 L 3.140625 -6.609375 C 3.597656 -6.929688 4.15625 -7.09375 4.8125 -7.09375 C 5.539062 -7.09375 6.113281 -6.921875 6.53125 -6.578125 C 6.945312 -6.242188 7.191406 -5.769531 7.265625 -5.15625 Z M 7.265625 -5.15625 "/></g></g></g><g fill="#5271ff" fill-opacity="1"><g transform="translate(218.491102, 285.640059)"><g><path d="M 7.09375 -3.59375 C 7.09375 -3.34375 7.085938 -3.140625 7.078125 -2.984375 L 2.15625 -2.984375 C 2.257812 -1.710938 2.789062 -1.078125 3.75 -1.078125 C 4.144531 -1.078125 4.46875 -1.179688 4.71875 -1.390625 C 4.976562 -1.597656 5.140625 -1.882812 5.203125 -2.25 L 7 -2.25 C 6.820312 -1.457031 6.441406 -0.851562 5.859375 -0.4375 C 5.273438 -0.0195312 4.5625 0.1875 3.71875 0.1875 C 2.71875 0.1875 1.90625 -0.117188 1.28125 -0.734375 C 0.65625 -1.359375 0.34375 -2.257812 0.34375 -3.4375 C 0.34375 -4.507812 0.664062 -5.382812 1.3125 -6.0625 C 1.957031 -6.75 2.804688 -7.09375 3.859375 -7.09375 C 4.867188 -7.09375 5.660156 -6.757812 6.234375 -6.09375 C 6.804688 -5.425781 7.09375 -4.59375 7.09375 -3.59375 Z M 3.78125 -5.84375 C 2.882812 -5.84375 2.359375 -5.28125 2.203125 -4.15625 L 5.25 -4.15625 C 5.125 -5.28125 4.632812 -5.84375 3.78125 -5.84375 Z M 3.78125 -5.84375 "/></g></g></g><g fill="#5271ff" fill-opacity="1"><g transform="translate(230.331788, 285.640059)"><g><path d="M 4.34375 -7.078125 C 4.539062 -7.078125 4.707031 -7.0625 4.84375 -7.03125 L 4.84375 -5.59375 C 4.082031 -5.644531 3.519531 -5.476562 3.15625 -5.09375 C 2.789062 -4.71875 2.609375 -4.078125 2.609375 -3.171875 L 2.609375 0 L 0.8125 0 L 0.8125 -6.921875 L 2.609375 -6.921875 L 2.609375 -5.65625 L 3.15625 -6.609375 C 3.5 -6.921875 3.894531 -7.078125 4.34375 -7.078125 Z M 4.34375 -7.078125 "/></g></g></g><g fill="#5271ff" fill-opacity="1"><g transform="translate(239.599271, 285.640059)"><g><path d="M 4.84375 0 L 4.703125 -1.015625 L 4.375 -0.265625 C 3.914062 0.0351562 3.34375 0.1875 2.65625 0.1875 C 2.019531 0.1875 1.488281 0.0078125 1.0625 -0.34375 C 0.632812 -0.707031 0.421875 -1.203125 0.421875 -1.828125 C 0.421875 -2.597656 0.742188 -3.1875 1.390625 -3.59375 C 2.035156 -4.007812 2.984375 -4.21875 4.234375 -4.21875 L 4.6875 -4.21875 L 4.6875 -4.359375 C 4.6875 -4.628906 4.675781 -4.84375 4.65625 -5 C 4.59375 -5.5625 4.238281 -5.84375 3.59375 -5.84375 C 2.875 -5.84375 2.488281 -5.453125 2.4375 -4.671875 L 0.6875 -4.65625 C 0.71875 -5.414062 1.003906 -6.007812 1.546875 -6.4375 C 2.097656 -6.875 2.800781 -7.09375 3.65625 -7.09375 C 5.375 -7.09375 6.296875 -6.414062 6.421875 -5.0625 C 6.453125 -4.726562 6.46875 -4.367188 6.46875 -3.984375 L 6.46875 -1.75 C 6.46875 -1.226562 6.507812 -0.644531 6.59375 0 Z M 3.34375 -1.078125 C 3.71875 -1.078125 4.035156 -1.207031 4.296875 -1.46875 C 4.554688 -1.726562 4.6875 -2.085938 4.6875 -2.546875 L 4.6875 -3.109375 C 3.082031 -3.222656 2.28125 -2.84375 2.28125 -1.96875 C 2.28125 -1.375 2.632812 -1.078125 3.34375 -1.078125 Z M 3.34375 -1.078125 "/></g></g></g><g fill="#5271ff" fill-opacity="1"><g transform="translate(251.232018, 285.640059)"><g><path d="M 2.96875 -5.6875 L 2.96875 -2.484375 C 2.96875 -2.191406 2.972656 -1.988281 2.984375 -1.875 C 3.003906 -1.53125 3.097656 -1.304688 3.265625 -1.203125 C 3.441406 -1.109375 3.78125 -1.082031 4.28125 -1.125 L 4.28125 0.046875 C 3.90625 0.109375 3.507812 0.140625 3.09375 0.140625 C 2.4375 0.140625 1.96875 0.03125 1.6875 -0.1875 C 1.40625 -0.40625 1.242188 -0.769531 1.203125 -1.28125 C 1.179688 -1.488281 1.171875 -1.820312 1.171875 -2.28125 L 1.171875 -5.6875 L 0.15625 -5.6875 L 0.15625 -6.859375 L 1.171875 -6.859375 L 1.171875 -8.5625 L 2.96875 -8.5625 L 2.96875 -6.859375 L 4.390625 -6.859375 L 4.390625 -5.6875 Z M 2.96875 -5.6875 "/></g></g></g><g fill="#5271ff" fill-opacity="1"><g transform="translate(260.252571, 285.640059)"><g><path d="M 1.296875 -6.078125 C 1.929688 -6.753906 2.8125 -7.09375 3.9375 -7.09375 C 5.0625 -7.09375 5.941406 -6.753906 6.578125 -6.078125 C 7.210938 -5.410156 7.53125 -4.535156 7.53125 -3.453125 C 7.53125 -2.378906 7.210938 -1.503906 6.578125 -0.828125 C 5.941406 -0.148438 5.0625 0.1875 3.9375 0.1875 C 2.8125 0.1875 1.929688 -0.148438 1.296875 -0.828125 C 0.660156 -1.503906 0.34375 -2.378906 0.34375 -3.453125 C 0.34375 -4.535156 0.660156 -5.410156 1.296875 -6.078125 Z M 2.671875 -1.703125 C 2.984375 -1.285156 3.40625 -1.078125 3.9375 -1.078125 C 4.476562 -1.078125 4.898438 -1.285156 5.203125 -1.703125 C 5.515625 -2.128906 5.671875 -2.710938 5.671875 -3.453125 C 5.671875 -4.203125 5.515625 -4.785156 5.203125 -5.203125 C 4.898438 -5.628906 4.476562 -5.84375 3.9375 -5.84375 C 3.40625 -5.84375 2.984375 -5.628906 2.671875 -5.203125 C 2.359375 -4.785156 2.203125 -4.203125 2.203125 -3.453125 C 2.203125 -2.710938 2.359375 -2.128906 2.671875 -1.703125 Z M 2.671875 -1.703125 "/></g></g></g><g fill="#5271ff" fill-opacity="1"><g transform="translate(272.457144, 285.640059)"><g><path d="M 4.34375 -7.078125 C 4.539062 -7.078125 4.707031 -7.0625 4.84375 -7.03125 L 4.84375 -5.59375 C 4.082031 -5.644531 3.519531 -5.476562 3.15625 -5.09375 C 2.789062 -4.71875 2.609375 -4.078125 2.609375 -3.171875 L 2.609375 0 L 0.8125 0 L 0.8125 -6.921875 L 2.609375 -6.921875 L 2.609375 -5.65625 L 3.15625 -6.609375 C 3.5 -6.921875 3.894531 -7.078125 4.34375 -7.078125 Z M 4.34375 -7.078125 "/></g></g></g><g fill="#5271ff" fill-opacity="1"><g transform="translate(53.230468, 263.440075)"><g><path d="M 23.726562 -13.683594 L 13.507812 -13.683594 L 13.507812 -8.992188 L 18.230469 -8.992188 C 17.847656 -5.84375 16.0625 -4.863281 13.054688 -4.863281 C 9.238281 -4.863281 7.558594 -7.980469 7.558594 -12.25 C 7.558594 -16.691406 9.378906 -19.632812 12.808594 -19.632812 C 14.976562 -19.632812 16.132812 -18.6875 17.042969 -16.796875 L 22.992188 -16.796875 C 22.1875 -22.152344 17.636719 -24.8125 12.667969 -24.8125 C 5.914062 -24.8125 1.261719 -20.296875 1.261719 -12.25 C 1.261719 -4.234375 5.808594 0.316406 13.054688 0.316406 C 20.71875 0.316406 23.726562 -3.917969 23.726562 -11.96875 Z M 23.726562 -13.683594 "/></g></g></g><g fill="#5271ff" fill-opacity="1"><g transform="translate(87.104792, 263.440075)"><g><path d="M 7.769531 0 L 7.769531 -24.496094 L 1.785156 -24.496094 L 1.785156 0 Z M 7.769531 0 "/></g></g></g><g fill="#5271ff" fill-opacity="1"><g transform="translate(105.407633, 263.440075)"><g><path d="M 1.398438 -11.757812 L 1.398438 -7.488281 L 12.492188 -7.488281 L 12.492188 -11.757812 Z M 1.398438 -11.757812 "/></g></g></g><g fill="#5271ff" fill-opacity="1"><g transform="translate(128.049499, 263.440075)"><g><path d="M 11.863281 -24.496094 L 1.785156 -24.496094 L 1.785156 0 L 7.769531 0 L 7.769531 -7.175781 L 11.863281 -7.175781 C 18.582031 -7.175781 21.488281 -10.777344 21.488281 -15.851562 C 21.488281 -20.890625 18.582031 -24.496094 11.863281 -24.496094 Z M 11.792969 -12.351562 L 7.769531 -12.351562 L 7.769531 -19.316406 L 11.792969 -19.316406 C 13.996094 -19.316406 15.082031 -17.953125 15.082031 -15.851562 C 15.082031 -13.71875 13.996094 -12.351562 11.792969 -12.351562 Z M 11.792969 -12.351562 "/></g></g></g><g fill="#5271ff" fill-opacity="1"><g transform="translate(159.194444, 263.440075)"><g><path d="M 22.222656 -4.09375 L 22.222656 -5.878906 C 22.222656 -8.257812 21.347656 -9.867188 18.722656 -11.269531 C 20.226562 -12.386719 21.941406 -13.894531 21.941406 -17.007812 C 21.941406 -21.136719 19.210938 -24.496094 12.597656 -24.496094 L 1.785156 -24.496094 L 1.785156 0 L 7.769531 0 L 7.769531 -8.574219 L 13.125 -8.574219 C 15.152344 -8.574219 16.238281 -7.277344 16.238281 -5.667969 L 16.238281 -4.09375 C 16.238281 -2.101562 16.34375 -1.15625 16.9375 0 L 22.921875 0 C 22.363281 -1.15625 22.222656 -2.101562 22.222656 -4.09375 Z M 12.25 -13.296875 L 7.769531 -13.296875 L 7.769531 -19.28125 L 12.457031 -19.28125 C 14.488281 -19.28125 15.746094 -18.40625 15.746094 -16.484375 C 15.746094 -14.347656 14.976562 -13.296875 12.25 -13.296875 Z M 12.25 -13.296875 "/></g></g></g><g fill="#5271ff" fill-opacity="1"><g transform="translate(191.774066, 263.440075)"><g><path d="M 13.054688 -24.8125 C 5.84375 -24.8125 1.261719 -20.085938 1.261719 -12.25 C 1.261719 -4.480469 5.84375 0.316406 13.054688 0.316406 C 20.226562 0.316406 24.847656 -4.480469 24.847656 -12.25 C 24.847656 -20.085938 20.226562 -24.8125 13.054688 -24.8125 Z M 13.054688 -4.863281 C 9.449219 -4.863281 7.558594 -7.839844 7.558594 -12.25 C 7.558594 -16.726562 9.449219 -19.632812 13.054688 -19.632812 C 16.65625 -19.632812 18.546875 -16.726562 18.546875 -12.25 C 18.546875 -7.839844 16.65625 -4.863281 13.054688 -4.863281 Z M 13.054688 -4.863281 "/></g></g></g><g fill="#5271ff" fill-opacity="1"><g transform="translate(226.628178, 263.440075)"><g><path d="M 18.128906 -19.316406 L 18.128906 -24.496094 L 1.785156 -24.496094 L 1.785156 0 L 7.769531 0 L 7.769531 -9.660156 L 16.34375 -9.660156 L 16.34375 -14.453125 L 7.769531 -14.453125 L 7.769531 -19.316406 Z M 18.128906 -19.316406 "/></g></g></g><g fill="#5271ff" fill-opacity="1"><g transform="translate(254.553843, 263.440075)"><g><path d="M 7.769531 0 L 7.769531 -24.496094 L 1.785156 -24.496094 L 1.785156 0 Z M 7.769531 0 "/></g></g></g><g fill="#5271ff" fill-opacity="1"><g transform="translate(272.856675, 263.440075)"><g><path d="M 7.769531 -5.179688 L 7.769531 -24.496094 L 1.785156 -24.496094 L 1.785156 0 L 18.582031 0 L 18.582031 -5.179688 Z M 7.769531 -5.179688 "/></g></g></g><g fill="#5271ff" fill-opacity="1"><g transform="translate(301.062286, 263.440075)"><g><path d="M 7.769531 -5.179688 L 7.769531 -9.972656 L 17.566406 -9.972656 L 17.566406 -14.769531 L 7.769531 -14.769531 L 7.769531 -19.316406 L 19.316406 -19.316406 L 19.316406 -24.496094 L 1.785156 -24.496094 L 1.785156 0 L 19.667969 0 L 19.667969 -5.179688 Z M 7.769531 -5.179688 "/></g></g></g></svg>