<?xml version="1.0" standalone="no"?>
<svg xmlns:xlink="http://www.w3.org/1999/xlink" id="wave" style="transform:rotate(180deg); transition: 0.3s" viewBox="0 0 1440 310" version="1.1" xmlns="http://www.w3.org/2000/svg"><defs><linearGradient id="sw-gradient-0" x1="0" x2="0" y1="1" y2="0"><stop stop-color="rgba(36, 77, 127, 1)" offset="0%"/><stop stop-color="rgba(29, 32, 38, 1)" offset="100%"/></linearGradient></defs><path style="transform:translate(0, 0px); opacity:1" fill="url(#sw-gradient-0)" d="M0,248L16,232.5C32,217,64,186,96,186C128,186,160,217,192,206.7C224,196,256,145,288,108.5C320,72,352,52,384,41.3C416,31,448,31,480,67.2C512,103,544,176,576,201.5C608,227,640,207,672,186C704,165,736,145,768,134.3C800,124,832,124,864,108.5C896,93,928,62,960,72.3C992,83,1024,134,1056,139.5C1088,145,1120,103,1152,103.3C1184,103,1216,145,1248,139.5C1280,134,1312,83,1344,87.8C1376,93,1408,155,1440,180.8C1472,207,1504,196,1536,160.2C1568,124,1600,62,1632,77.5C1664,93,1696,186,1728,191.2C1760,196,1792,114,1824,67.2C1856,21,1888,10,1920,20.7C1952,31,1984,62,2016,98.2C2048,134,2080,176,2112,180.8C2144,186,2176,155,2208,155C2240,155,2272,186,2288,201.5L2304,217L2304,310L2288,310C2272,310,2240,310,2208,310C2176,310,2144,310,2112,310C2080,310,2048,310,2016,310C1984,310,1952,310,1920,310C1888,310,1856,310,1824,310C1792,310,1760,310,1728,310C1696,310,1664,310,1632,310C1600,310,1568,310,1536,310C1504,310,1472,310,1440,310C1408,310,1376,310,1344,310C1312,310,1280,310,1248,310C1216,310,1184,310,1152,310C1120,310,1088,310,1056,310C1024,310,992,310,960,310C928,310,896,310,864,310C832,310,800,310,768,310C736,310,704,310,672,310C640,310,608,310,576,310C544,310,512,310,480,310C448,310,416,310,384,310C352,310,320,310,288,310C256,310,224,310,192,310C160,310,128,310,96,310C64,310,32,310,16,310L0,310Z"/></svg>